<svg id="Layer_1" data-name="Layer 1" xmlns="http://www.w3.org/2000/svg" viewBox="0 0 1000 1000"><defs><style>.cls-1{fill:#000061;}</style></defs><polygon class="cls-1" points="395.98 291.39 402.19 308.23 418.76 314.17 401.9 319.47 395.98 336.95 390.96 319.61 373.2 314.17 390.56 308.53 395.98 291.39"/><polygon class="cls-1" points="554.78 257.81 559.73 271.24 572.95 275.98 559.5 280.21 554.78 294.15 550.77 280.32 536.61 275.98 550.45 271.48 554.78 257.81"/><polygon class="cls-1" points="593.27 291.58 597.27 302.43 607.95 306.25 597.08 309.67 593.27 320.93 590.04 309.75 578.6 306.25 589.78 302.62 593.27 291.58"/><polygon class="cls-1" points="407.95 390.19 351.58 364.42 353.63 343.71 421.99 375.09 407.95 390.19"/><path class="cls-1" d="M598.1,565.41l-1.46,1.21c-.59.48-1.18,1-1.77,1.44s-1.41,1.09-2.12,1.63l-1.8,1.37-2.2,1.57c-.6.43-1.21.87-1.82,1.29s-1.52,1-2.28,1.52-1.21.81-1.83,1.2c-.79.5-1.59,1-2.39,1.48-.6.36-1.2.74-1.81,1.1-.85.5-1.71,1-2.57,1.46-.57.32-1.14.66-1.71,1-1,.53-1.94,1-2.91,1.53-.42.21-.82.44-1.24.64l-6.59,3.1-1.14.5c-.56.25-1.13.49-1.69.72l-.37.15c-.64.27-1.28.53-1.93.78l-1.48.58-.73.28-1.83.67-1.27.45-.95.33-1.89.63-1,.34-1.11.35c-.67.21-1.34.41-2,.6l-.82.24-1.21.35c-.74.21-1.49.4-2.23.59l-.61.16L540,595l-2.61.61-.42.1-1.07.24-.25.05-6.59,1.25a146.88,146.88,0,0,1-47.25,0L475.26,596l-.24-.05-1.11-.25-.4-.09-2.6-.61-1.23-.31-.62-.17c-.74-.19-1.49-.38-2.23-.59l-1.19-.34-.84-.25c-.68-.19-1.35-.39-2-.6l-1.07-.34-1.07-.35-1.9-.63-.91-.32-1.3-.46-1.84-.68-.7-.26-1.51-.59-1.94-.78-.34-.14-1.72-.73-1.13-.5-6.59-3.1c-.41-.2-.81-.42-1.22-.64-1-.5-2-1-2.93-1.53-.57-.31-1.14-.64-1.71-1-.86-.48-1.72-1-2.57-1.46-.61-.36-1.2-.73-1.8-1.1-.8-.49-1.61-1-2.4-1.48l-1.83-1.2c-.76-.5-1.53-1-2.28-1.52s-1.21-.86-1.82-1.29l-2.2-1.57-1.79-1.36c-.71-.55-1.43-1.09-2.13-1.64s-1.17-1-1.76-1.44l-1.47-1.21-6.59-5.87a144.15,144.15,0,0,1-29.7-168.94l25.57,11.69a3.2,3.2,0,0,0,1.37.3,3.29,3.29,0,0,0,1.37-6.29L348.5,370.54a3.29,3.29,0,1,0-2.74,6l24.79,11.33a150.87,150.87,0,0,0,72.12,204.2c1.41.65,2.82,1.27,4.25,1.87,1.94.82,3.91,1.59,5.89,2.32a149.73,149.73,0,0,0,25.15,7h0a152.07,152.07,0,0,0,55,0q4.57-.84,9.08-2a149.66,149.66,0,0,0,26.2-9.19h0q2.38-1.09,4.74-2.27c2.45-1.24,4.86-2.56,7.25-3.92A150.8,150.8,0,0,0,656.17,455a149.11,149.11,0,0,0-14-63.42l3.38-1.53a17.41,17.41,0,0,0,8.9-22.7l-10.41-41.75a3.3,3.3,0,0,0-4.55-2.21l-56.07,25.25a3.27,3.27,0,0,0-1.39,4.82l23.79,35.72a17.44,17.44,0,0,0,22.93,8.44l7.42-3.34a144.23,144.23,0,0,1-31.51,165.23Zm0-216.13,10.58,15.8a3.29,3.29,0,1,0,5.47-3.67l-10-14.88,34.4-15.48,8.84,35.43L609.89,383.4l-20.2-30.32Zm27.93,42.36a10.75,10.75,0,0,1-8.31.26,10.88,10.88,0,0,1-4.25-2.91l.17-.08,35.54-16a10.89,10.89,0,0,1-6.34,11.16Z"/><path class="cls-1" d="M430.86,579.22v-161l19.36-8.37a3.42,3.42,0,0,0,2-3.13V357.58l38.9-27.08v273c0,1.88,1.67-1.08,3.55-1.08s3.26,3,3.26,1.08V324a3.41,3.41,0,0,0-5.35-2.8L446.92,353a3.4,3.4,0,0,0-1.46,2.8v48.68l-19.36,8.37a3.42,3.42,0,0,0-2.05,3.13V579.22a3.41,3.41,0,1,0,6.81,0Z"/><path class="cls-1" d="M543.7,600V355.8a3.42,3.42,0,0,0-1.46-2.8l-45.72-31.82a3.41,3.41,0,0,0-5.35,2.8V603.46c0,1.88,1.67-1.08,3.55-1.08s3.26,3,3.26,1.08v-273l38.9,27.08V600c0,1.88,1.53-.36,3.41-.36s3.41,2.24,3.41.36Z"/><path class="cls-1" d="M445.46,428.13V590.26a3.41,3.41,0,0,0,6.81,0V428.13a3.41,3.41,0,1,0-6.81,0"/><path class="cls-1" d="M469.76,361.59V597.68a3.41,3.41,0,1,0,6.81,0V361.59a3.41,3.41,0,1,0-6.81,0"/><path class="cls-1" d="M538.44,384.7l58.62,37.77V566.59a3.41,3.41,0,1,0,6.82,0v-146a3.4,3.4,0,0,0-1.56-2.87L542.13,379a3.4,3.4,0,1,0-3.69,5.72Z"/><path class="cls-1" d="M558.73,420.61v14.75a3.41,3.41,0,1,0,6.81,0V420.61a3.41,3.41,0,1,0-6.81,0"/><path class="cls-1" d="M558.73,451.86v14.75a3.41,3.41,0,1,0,6.81,0V451.86a3.41,3.41,0,1,0-6.81,0"/><path class="cls-1" d="M558.73,483.1v14.76a3.41,3.41,0,0,0,6.81,0V483.1a3.41,3.41,0,1,0-6.81,0"/><path class="cls-1" d="M558.73,514.35V529.1a3.41,3.41,0,1,0,6.81,0V514.35a3.41,3.41,0,1,0-6.81,0"/><path class="cls-1" d="M577.82,428.85v12.48a3.41,3.41,0,0,0,6.82,0V428.85a3.41,3.41,0,0,0-6.82,0"/><path class="cls-1" d="M577.82,455.27v12.47a3.41,3.41,0,0,0,6.82,0V455.27a3.41,3.41,0,0,0-6.82,0"/><path class="cls-1" d="M577.82,481.68v12.47a3.41,3.41,0,0,0,6.82,0V481.68a3.41,3.41,0,1,0-6.82,0"/><path class="cls-1" d="M577.82,508.1v12.47a3.41,3.41,0,1,0,6.82,0V508.1a3.41,3.41,0,1,0-6.82,0"/><path class="cls-1" d="M558.73,544.8v14.75a3.41,3.41,0,1,0,6.81,0V544.8a3.41,3.41,0,1,0-6.81,0"/><path class="cls-1" d="M577.82,538.55V551a3.41,3.41,0,0,0,6.82,0V538.55a3.41,3.41,0,0,0-6.82,0"/><path class="cls-1" d="M515.47,356.16v11.72a3.41,3.41,0,0,0,6.82,0V356.16a3.41,3.41,0,0,0-6.82,0"/><path class="cls-1" d="M515.47,381.84v11.72a3.41,3.41,0,0,0,6.82,0V381.84a3.41,3.41,0,0,0-6.82,0"/><path class="cls-1" d="M515.47,407.52v11.71a3.41,3.41,0,0,0,6.82,0V407.52a3.41,3.41,0,0,0-6.82,0"/><path class="cls-1" d="M515.47,433.19v11.72a3.41,3.41,0,0,0,6.82,0V433.19a3.41,3.41,0,0,0-6.82,0"/><path class="cls-1" d="M515.47,458.87v11.72a3.41,3.41,0,0,0,6.82,0V458.87a3.41,3.41,0,1,0-6.82,0"/><path class="cls-1" d="M515.47,484.55v11.72a3.41,3.41,0,0,0,6.82,0V484.55a3.41,3.41,0,1,0-6.82,0"/><path class="cls-1" d="M515.47,510.23v11.71a3.41,3.41,0,0,0,6.82,0V510.23a3.41,3.41,0,1,0-6.82,0"/><path class="cls-1" d="M515.47,535.9v11.72a3.41,3.41,0,0,0,6.82,0V535.9a3.41,3.41,0,0,0-6.82,0"/><path class="cls-1" d="M515.47,561.58V573.3a3.41,3.41,0,0,0,6.82,0V561.58a3.41,3.41,0,1,0-6.82,0"/><path class="cls-1" d="M515.47,587.26V599a3.41,3.41,0,0,0,6.82,0V587.26a3.41,3.41,0,0,0-6.82,0"/><path class="cls-1" d="M241.35,660.46c0-13.94,10.67-24,25-24,7.61,0,14.15,2.74,18.49,7.81l-5.61,5.27a16.4,16.4,0,0,0-12.48-5.47c-9.67,0-16.68,6.8-16.68,16.41s7,16.42,16.68,16.42a16.23,16.23,0,0,0,12.48-5.54l5.61,5.34c-4.34,5.07-10.88,7.81-18.55,7.81C252,684.49,241.35,674.41,241.35,660.46Z"/><path class="cls-1" d="M293.2,637.11h8.67v39.37H326.3v7.34H293.2Z"/><path class="cls-1" d="M368.21,676.55v7.27h-35V637.11h34.1v7.27H341.85v12.15H364.4v7.14H341.85v12.88Z"/><path class="cls-1" d="M408.18,673H384.82l-4.6,10.81h-9l21-46.71h8.54l21.09,46.71h-9.08Zm-2.87-6.81-8.81-20.42-8.74,20.42Z"/><path class="cls-1" d="M458.43,683.82l-9.55-13.68a15.48,15.48,0,0,1-1.8.07H436.54v13.61h-8.68V637.11h19.22c12.28,0,19.89,6.27,19.89,16.61,0,7.08-3.6,12.28-9.94,14.75l10.74,15.35Zm-11.75-39.37H436.54v18.62h10.14c7.61,0,11.55-3.47,11.55-9.35S454.29,644.45,446.68,644.45Z"/><path class="cls-1" d="M491.72,660.46c0-13.94,10.68-24,25-24,7.61,0,14.15,2.74,18.49,7.81l-5.61,5.27a16.4,16.4,0,0,0-12.48-5.47c-9.68,0-16.68,6.8-16.68,16.41s7,16.42,16.68,16.42a16.23,16.23,0,0,0,12.48-5.54l5.61,5.34c-4.34,5.07-10.88,7.81-18.56,7.81C502.4,684.49,491.72,674.41,491.72,660.46Z"/><path class="cls-1" d="M585.08,637.11v46.71h-8.67v-20H552.25v20h-8.67V637.11h8.67v19.28h24.16V637.11Z"/><path class="cls-1" d="M594.29,660.46c0-13.81,10.68-24,25.16-24s25.16,10.14,25.16,24-10.68,24-25.16,24S594.29,674.28,594.29,660.46Zm41.58,0c0-9.54-7-16.41-16.42-16.41S603,650.92,603,660.46s7,16.42,16.42,16.42S635.87,670,635.87,660.46Z"/><path class="cls-1" d="M653.82,637.11h8.67v46.71h-8.67Z"/><path class="cls-1" d="M671.77,660.46c0-13.94,10.67-24,25-24,7.61,0,14.15,2.74,18.49,7.81l-5.61,5.27a16.4,16.4,0,0,0-12.48-5.47c-9.67,0-16.68,6.8-16.68,16.41s7,16.42,16.68,16.42a16.23,16.23,0,0,0,12.48-5.54l5.61,5.34c-4.34,5.07-10.88,7.81-18.55,7.81C682.44,684.49,671.77,674.41,671.77,660.46Z"/><path class="cls-1" d="M758.65,676.55v7.27h-35V637.11h34.1v7.27H732.29v12.15h22.56v7.14H732.29v12.88Z"/><path class="cls-1" d="M344.05,721.8c0-11.84,9.06-20.39,21.24-20.39,6.46,0,12,2.32,15.69,6.63l-4.76,4.47a13.94,13.94,0,0,0-10.59-4.64c-8.22,0-14.16,5.77-14.16,13.93s5.94,13.94,14.16,13.94A13.77,13.77,0,0,0,376.22,731l4.76,4.54c-3.68,4.3-9.23,6.62-15.75,6.62C353.11,742.19,344.05,733.64,344.05,721.8Z"/><path class="cls-1" d="M388.06,702h7.37V735.4h20.73v6.23h-28.1Z"/><path class="cls-1" d="M451.73,735.45v6.18H422V702h28.94v6.17H429.36v10.31h19.15v6.06H429.36v10.93Z"/><path class="cls-1" d="M485.67,732.45H465.84l-3.91,9.18h-7.59L472.19,702h7.25l17.89,39.65h-7.7Zm-2.44-5.78-7.48-17.33-7.42,17.33Z"/><path class="cls-1" d="M537.61,702v39.65h-6.06l-21.86-26.85v26.85h-7.31V702h6.06l21.87,26.84V702Z"/><path class="cls-1" d="M578,735.45v6.18H548.27V702h28.94v6.17H555.63v10.31h19.14v6.06H555.63v10.93Z"/><path class="cls-1" d="M612.16,741.63,604.06,730a13,13,0,0,1-1.53.06h-8.95v11.56h-7.36V702h16.31c10.43,0,16.88,5.32,16.88,14.1,0,6-3,10.42-8.44,12.52l9.12,13Zm-10-33.42h-8.61V724h8.61c6.46,0,9.8-3,9.8-7.93S608.65,708.21,602.19,708.21Z"/><path class="cls-1" d="M624.29,737.43l2.55-5.72a22,22,0,0,0,13.08,4.37c6.18,0,8.78-2.21,8.78-5.16,0-8.55-23.56-2.94-23.56-17.67,0-6.4,5.1-11.84,16-11.84a25.13,25.13,0,0,1,13.2,3.51L652,710.64a22.1,22.1,0,0,0-10.93-3.11c-6.12,0-8.61,2.38-8.61,5.38,0,8.44,23.5,2.94,23.5,17.5,0,6.34-5.15,11.78-16,11.78C633.75,742.19,627.57,740.27,624.29,737.43Z"/><path class="cls-1" d="M328.23,719.76H275.61a2.14,2.14,0,0,0-2.17,1.74,2,2,0,0,0,2,2.34h52.66a2.11,2.11,0,0,0,2.12-1.7,2,2,0,0,0-2-2.38"/><path class="cls-1" d="M724.55,719.76H671.93a2.15,2.15,0,0,0-2.18,1.74,2,2,0,0,0,2,2.34h52.67a2.12,2.12,0,0,0,2.12-1.7,2,2,0,0,0-2-2.38"/></svg>