<svg id="Layer_1" data-name="Layer 1" xmlns="http://www.w3.org/2000/svg" viewBox="0 0 1000 1000"><defs><style>.cls-1{fill:#f8f8ef;}</style></defs><polygon class="cls-1" points="397.91 295.25 403.99 311.78 420.27 317.61 403.71 322.81 397.91 339.97 392.98 322.94 375.55 317.61 392.58 312.07 397.91 295.25"/><polygon class="cls-1" points="553.77 262.28 558.62 275.47 571.6 280.12 558.4 284.27 553.77 297.96 549.83 284.38 535.93 280.12 549.51 275.7 553.77 262.28"/><polygon class="cls-1" points="591.55 295.43 595.47 306.08 605.96 309.83 595.29 313.19 591.55 324.24 588.37 313.27 577.14 309.83 588.12 306.27 591.55 295.43"/><polygon class="cls-1" points="409.65 392.22 354.33 366.93 356.33 346.6 423.43 377.4 409.65 392.22"/><path class="cls-1" d="M596.29,564.2l-1.44,1.19c-.58.47-1.15,1-1.74,1.41s-1.38,1.07-2.07,1.6l-1.77,1.35-2.16,1.54c-.59.42-1.18.85-1.79,1.26s-1.49,1-2.23,1.49-1.2.8-1.8,1.18c-.78.5-1.56,1-2.35,1.45l-1.77,1.09c-.83.49-1.68,1-2.52,1.43-.56.32-1.12.64-1.69.95-.94.52-1.9,1-2.85,1.5l-1.22.64-6.46,3-1.12.49-1.66.7-.36.15-1.9.76c-.48.2-1,.39-1.45.57l-.72.27q-.9.35-1.8.66l-1.24.45-.94.32-1.85.62-1,.33-1.09.35-2,.59-.81.23-1.19.35-2.19.58-.59.15-1.22.32c-.85.21-1.71.4-2.57.59l-.41.1-1.05.24-.24.05-6.47,1.22a143.78,143.78,0,0,1-46.38,0l-6.46-1.22-.24-.05-1.09-.25-.39-.09c-.85-.19-1.7-.38-2.55-.59l-1.21-.31-.61-.16-2.18-.58-1.17-.34-.83-.24c-.66-.19-1.33-.39-2-.6l-1-.33-1.06-.34-1.86-.62-.89-.31-1.28-.46q-.9-.31-1.8-.66l-.69-.26-1.48-.58-1.91-.76-.33-.14-1.69-.72-1.11-.48-6.46-3c-.41-.21-.8-.43-1.21-.63-1-.5-1.92-1-2.86-1.51-.57-.3-1.12-.63-1.68-.95-.85-.47-1.7-.94-2.53-1.43l-1.77-1.08c-.78-.48-1.57-1-2.35-1.46-.6-.38-1.2-.78-1.79-1.17-.75-.5-1.5-1-2.24-1.5s-1.2-.84-1.79-1.26-1.45-1-2.16-1.55-1.17-.89-1.76-1.33l-2.09-1.61c-.58-.46-1.15-.94-1.73-1.41l-1.44-1.19L408,558.44a141.47,141.47,0,0,1-29.16-165.82l25.1,11.48a3.21,3.21,0,0,0,1.34.29,3.23,3.23,0,0,0,1.35-6.17L351.3,372.93a3.23,3.23,0,1,0-2.69,5.88l24.33,11.12a148.07,148.07,0,0,0,70.79,200.43c1.38.63,2.77,1.25,4.17,1.84,1.91.8,3.84,1.55,5.79,2.28a147.11,147.11,0,0,0,24.67,6.83h0a149.46,149.46,0,0,0,54,0c3-.55,6-1.2,8.91-1.93a147.46,147.46,0,0,0,25.72-9h0q2.34-1.08,4.65-2.23c2.41-1.21,4.78-2.51,7.11-3.85a148,148,0,0,0,60.8-190.67l3.32-1.49a17.1,17.1,0,0,0,8.73-22.29l-10.21-41a3.28,3.28,0,0,0-1.73-2.13,3.24,3.24,0,0,0-2.74,0l-55,24.78a3.22,3.22,0,0,0-1.77,2.06,3.18,3.18,0,0,0,.41,2.68l23.35,35.06a17.13,17.13,0,0,0,22.51,8.28l7.28-3.28a141.58,141.58,0,0,1-30.93,162.18Zm0-212.14,10.39,15.51A3.24,3.24,0,0,0,609.4,369a3.19,3.19,0,0,0,1.79-.55,3.23,3.23,0,0,0,.89-4.49l-9.78-14.6,33.77-15.2L644.74,369l-36.88,16.6L588,355.79Zm27.42,41.59A10.71,10.71,0,0,1,611.41,391l.17-.07,34.88-15.7a10.48,10.48,0,0,1-.63,5,10.61,10.61,0,0,1-5.59,6Z"/><path class="cls-1" d="M432.14,577.76v-158l19-8.21a3.35,3.35,0,0,0,2-3.07V360.21l38.18-26.58V601.55c0,1.84,1.64-1.06,3.49-1.06s3.2,2.9,3.2,1.06V327.23a3.35,3.35,0,0,0-5.25-2.75L447.9,355.72a3.35,3.35,0,0,0-1.44,2.75v47.78l-19,8.21a3.36,3.36,0,0,0-2,3.07V577.76a3.35,3.35,0,0,0,6.69,0Z"/><path class="cls-1" d="M542.89,598.14V358.47a3.37,3.37,0,0,0-1.43-2.75l-44.87-31.24a3.36,3.36,0,0,0-5.26,2.75V601.55c0,1.84,1.64-1.06,3.49-1.06s3.2,2.9,3.2,1.06V333.63l38.18,26.58V598.14c0,1.85,1.5-.35,3.34-.35s3.35,2.2,3.35.35Z"/><path class="cls-1" d="M446.46,429.46V588.59a3.35,3.35,0,0,0,6.69,0V429.46a3.35,3.35,0,1,0-6.69,0"/><path class="cls-1" d="M470.32,364.15V595.87a3.35,3.35,0,1,0,6.69,0V364.15a3.35,3.35,0,1,0-6.69,0"/><path class="cls-1" d="M537.73,386.84l57.54,37.06V565.36a3.35,3.35,0,1,0,6.69,0V422.08a3.36,3.36,0,0,0-1.54-2.82l-59.06-38.05a3.35,3.35,0,1,0-3.63,5.63Z"/><path class="cls-1" d="M557.64,422.08v14.48a3.35,3.35,0,0,0,6.69,0V422.08a3.35,3.35,0,1,0-6.69,0"/><path class="cls-1" d="M557.64,452.75v14.48a3.35,3.35,0,0,0,6.69,0V452.75a3.35,3.35,0,1,0-6.69,0"/><path class="cls-1" d="M557.64,483.41V497.9a3.35,3.35,0,0,0,6.69,0V483.41a3.35,3.35,0,0,0-6.69,0"/><path class="cls-1" d="M557.64,514.08v14.49a3.35,3.35,0,0,0,6.69,0V514.08a3.35,3.35,0,0,0-6.69,0"/><path class="cls-1" d="M576.38,430.17v12.24a3.35,3.35,0,1,0,6.69,0V430.17a3.35,3.35,0,1,0-6.69,0"/><path class="cls-1" d="M576.38,456.09v12.25a3.35,3.35,0,0,0,6.69,0V456.09a3.35,3.35,0,0,0-6.69,0"/><path class="cls-1" d="M576.38,482v12.24a3.35,3.35,0,1,0,6.69,0V482a3.35,3.35,0,0,0-6.69,0"/><path class="cls-1" d="M576.38,508v12.24a3.35,3.35,0,0,0,6.69,0V508a3.35,3.35,0,1,0-6.69,0"/><path class="cls-1" d="M557.64,544v14.48a3.35,3.35,0,1,0,6.69,0V544a3.35,3.35,0,0,0-6.69,0"/><path class="cls-1" d="M576.38,537.83v12.25a3.35,3.35,0,0,0,6.69,0V537.83a3.35,3.35,0,0,0-6.69,0"/><path class="cls-1" d="M515.19,358.82v11.5a3.35,3.35,0,1,0,6.69,0v-11.5a3.35,3.35,0,0,0-6.69,0"/><path class="cls-1" d="M515.19,384v11.5a3.35,3.35,0,1,0,6.69,0V384a3.35,3.35,0,0,0-6.69,0"/><path class="cls-1" d="M515.19,409.23v11.5a3.35,3.35,0,0,0,6.69,0v-11.5a3.35,3.35,0,1,0-6.69,0"/><path class="cls-1" d="M515.19,434.43v11.5a3.35,3.35,0,0,0,6.69,0v-11.5a3.35,3.35,0,1,0-6.69,0"/><path class="cls-1" d="M515.19,459.63v11.5a3.35,3.35,0,1,0,6.69,0v-11.5a3.35,3.35,0,0,0-6.69,0"/><path class="cls-1" d="M515.19,484.83v11.5a3.35,3.35,0,1,0,6.69,0v-11.5a3.35,3.35,0,0,0-6.69,0"/><path class="cls-1" d="M515.19,510v11.5a3.35,3.35,0,0,0,6.69,0V510a3.35,3.35,0,1,0-6.69,0"/><path class="cls-1" d="M515.19,535.24v11.5a3.35,3.35,0,0,0,6.69,0v-11.5a3.35,3.35,0,1,0-6.69,0"/><path class="cls-1" d="M515.19,560.44v11.5a3.35,3.35,0,1,0,6.69,0v-11.5a3.35,3.35,0,0,0-6.69,0"/><path class="cls-1" d="M515.19,585.64v11.5a3.35,3.35,0,1,0,6.69,0v-11.5a3.35,3.35,0,0,0-6.69,0"/><path class="cls-1" d="M246.13,657.5c0-13.69,10.48-23.58,24.56-23.58,7.47,0,13.89,2.68,18.14,7.66l-5.5,5.18a16.08,16.08,0,0,0-12.25-5.37c-9.49,0-16.37,6.68-16.37,16.11s6.88,16.11,16.37,16.11a16,16,0,0,0,12.25-5.43l5.5,5.23c-4.25,5-10.67,7.67-18.21,7.67C256.61,681.08,246.13,671.19,246.13,657.5Z"/><path class="cls-1" d="M297,634.57h8.52v38.65h24v7.2H297Z"/><path class="cls-1" d="M370.64,673.28v7.14H336.25V634.57h33.47v7.14h-25v11.92h22.14v7H344.77v12.64Z"/><path class="cls-1" d="M409.88,669.81H387l-4.52,10.61h-8.78l20.64-45.85h8.38l20.7,45.85h-8.91Zm-2.82-6.68-8.65-20-8.58,20Z"/><path class="cls-1" d="M459.2,680.42,449.83,667a17.45,17.45,0,0,1-1.77.06H437.71v13.36H429.2V634.57h18.86c12.05,0,19.52,6.16,19.52,16.31,0,7-3.54,12.06-9.76,14.48l10.55,15.06Zm-11.53-38.64h-10v18.27h10c7.46,0,11.33-3.4,11.33-9.17S455.13,641.78,447.67,641.78Z"/><path class="cls-1" d="M491.88,657.5c0-13.69,10.48-23.58,24.56-23.58,7.47,0,13.89,2.68,18.14,7.66l-5.5,5.18a16.06,16.06,0,0,0-12.25-5.37c-9.49,0-16.37,6.68-16.37,16.11s6.88,16.11,16.37,16.11a16,16,0,0,0,12.25-5.43l5.5,5.23c-4.25,5-10.67,7.67-18.2,7.67C502.36,681.08,491.88,671.19,491.88,657.5Z"/><path class="cls-1" d="M583.51,634.57v45.85H575V660.77H551.28v19.65h-8.51V634.57h8.51V653.5H575V634.57Z"/><path class="cls-1" d="M592.55,657.5c0-13.56,10.48-23.58,24.69-23.58s24.7,10,24.7,23.58-10.48,23.58-24.7,23.58S592.55,671.06,592.55,657.5Zm40.81,0c0-9.37-6.88-16.11-16.12-16.11s-16.11,6.74-16.11,16.11a15.63,15.63,0,0,0,16.11,16.11C626.48,673.61,633.36,666.86,633.36,657.5Z"/><path class="cls-1" d="M651,634.57h8.52v45.85H651Z"/><path class="cls-1" d="M668.59,657.5c0-13.69,10.48-23.58,24.57-23.58,7.46,0,13.88,2.68,18.14,7.66l-5.5,5.18a16.08,16.08,0,0,0-12.25-5.37c-9.5,0-16.38,6.68-16.38,16.11s6.88,16.11,16.38,16.11a16,16,0,0,0,12.25-5.43l5.5,5.23c-4.26,5-10.68,7.67-18.21,7.67C679.07,681.08,668.59,671.19,668.59,657.5Z"/><path class="cls-1" d="M753.87,673.28v7.14H719.48V634.57H753v7.14H728v11.92h22.14v7H728v12.64Z"/><path class="cls-1" d="M346.93,717.7c0-11.62,8.89-20,20.85-20,6.34,0,11.79,2.28,15.4,6.5l-4.67,4.39a13.7,13.7,0,0,0-10.4-4.55c-8.06,0-13.9,5.67-13.9,13.67s5.84,13.68,13.9,13.68a13.53,13.53,0,0,0,10.4-4.62l4.67,4.45c-3.61,4.23-9.06,6.51-15.46,6.51C355.82,737.72,346.93,729.32,346.93,717.7Z"/><path class="cls-1" d="M390.13,698.24h7.23V731h20.35v6.12H390.13Z"/><path class="cls-1" d="M452.63,731.1v6.06H423.44V698.24h28.41v6.06H430.67v10.12h18.79v6H430.67V731.1Z"/><path class="cls-1" d="M485.93,728.15H466.47l-3.83,9h-7.45l17.51-38.92h7.12l17.56,38.92h-7.56Zm-2.39-5.67-7.34-17-7.28,17Z"/><path class="cls-1" d="M536.92,698.24v38.92H531l-21.46-26.35v26.35h-7.17V698.24h6l21.46,26.36V698.24Z"/><path class="cls-1" d="M576.56,731.1v6.06H547.37V698.24h28.41v6.06H554.6v10.12h18.79v6H554.6V731.1Z"/><path class="cls-1" d="M610.09,737.16l-8-11.4a12.54,12.54,0,0,1-1.5.06h-8.79v11.34h-7.22V698.24h16c10.23,0,16.57,5.23,16.57,13.85a12.44,12.44,0,0,1-8.29,12.28l9,12.79Zm-9.78-32.8h-8.46v15.51h8.46c6.33,0,9.61-2.89,9.61-7.78S606.64,704.36,600.31,704.36Z"/><path class="cls-1" d="M622,733.05l2.5-5.62a21.59,21.59,0,0,0,12.85,4.28c6.06,0,8.61-2.17,8.61-5.06,0-8.39-23.13-2.89-23.13-17.34,0-6.29,5-11.62,15.68-11.62a24.66,24.66,0,0,1,13,3.44l-2.28,5.62a21.6,21.6,0,0,0-10.73-3.06c-6,0-8.45,2.34-8.45,5.28,0,8.29,23.07,2.89,23.07,17.18,0,6.23-5.06,11.57-15.73,11.57C631.28,737.72,625.22,735.83,622,733.05Z"/><path class="cls-1" d="M331.41,715.7H279.76a2.1,2.1,0,0,0-2.13,1.71,2,2,0,0,0,2,2.29H331.3a2.07,2.07,0,0,0,2.08-1.67,2,2,0,0,0-2-2.33"/><path class="cls-1" d="M720.4,715.7H668.75a2.1,2.1,0,0,0-2.13,1.71,2,2,0,0,0,2,2.29h51.69a2.07,2.07,0,0,0,2.08-1.67,2,2,0,0,0-2-2.33"/></svg>